<svg data-v-423bf9ae="" xmlns="http://www.w3.org/2000/svg" viewBox="0 0 269.0929345467944 60" class="font"><!----><!----><!----><g data-v-423bf9ae="" id="060ecb1a-eec9-4664-adab-42a789b0d42d" fill="white" transform="matrix(3.298515916977585,0,0,3.298515916977585,0.23089919551557614,-6.695987932348935)"><path d="M-0.07 14.81L-0.07 14.81L-0.07 14.81Q-0.07 14.55 0.70 12.83L0.70 12.83L0.70 12.83Q1.47 11.12 2.48 8.90L2.48 8.90L2.48 8.90Q3.50 6.68 3.86 5.73L3.86 5.73L4.17 4.93L4.17 4.93Q3.95 4.59 3.68 4.33L3.68 4.33L3.68 4.33Q4.12 4.16 4.51 4.16L4.51 4.16L4.51 4.16Q5.39 4.16 5.88 5.28L5.88 5.28L5.88 5.28Q6.19 5.99 6.71 8.47L6.71 8.47L6.71 8.47Q6.72 8.50 6.75 8.65L6.75 8.65L6.75 8.65Q6.78 8.81 7.04 10.07L7.04 10.07L7.04 10.07Q7.29 11.34 7.39 11.75L7.39 11.75L7.39 11.75Q7.49 12.17 7.73 13.02L7.73 13.02L7.73 13.02Q8.11 14.46 8.68 15.26L8.68 15.26L8.68 15.26Q8.02 15.65 7.59 15.65L7.59 15.65L7.59 15.65Q7.17 15.65 6.98 15.39L6.98 15.39L6.98 15.39Q6.79 15.13 6.63 14.60L6.63 14.60L6.63 14.60Q6.47 14.06 5.95 11.59L5.95 11.59L5.95 11.59Q5.64 12.07 4.72 12.10L4.72 12.10L2.23 12.19L2.23 12.19Q1.43 14.35 1.06 15.89L1.06 15.89L1.06 15.89Q-0.07 15.41-0.07 14.81ZM4.66 6.17L4.66 6.17L4.66 6.17Q3.05 10.00 2.60 11.14L2.60 11.14L5.85 11.14L5.85 11.14Q5.19 7.94 4.66 6.17ZM11.26 12.60L11.26 12.60Q11.26 13.40 11.56 13.90L11.56 13.90L11.56 13.90Q11.87 14.41 12.52 14.41L12.52 14.41L12.52 14.41Q13.17 14.41 13.71 13.83L13.71 13.83L13.71 13.83Q14.25 13.24 14.58 12.26L14.58 12.26L14.58 12.26Q14.91 11.27 15.15 10.16L15.15 10.16L15.15 10.16Q15.40 9.04 15.51 7.78L15.51 7.78L15.51 7.78Q15.72 5.45 15.72 4.07L15.72 4.07L15.72 4.07Q15.72 2.70 15.61 2.03L15.61 2.03L15.61 2.03Q17.05 2.49 17.05 4.93L17.05 4.93L17.05 4.93Q17.05 5.92 16.58 8.93L16.58 8.93L16.58 8.93Q16.11 11.94 16.11 13.33L16.11 13.33L16.11 13.33Q16.11 14.71 16.24 15.68L16.24 15.68L16.24 15.68Q15.44 15.41 15.15 14.73L15.15 14.73L15.15 14.73Q14.85 14.04 14.85 12.98L14.85 12.98L14.85 12.98Q14.42 14.18 13.57 14.88L13.57 14.88L13.57 14.88Q12.71 15.58 11.79 15.58L11.79 15.58L11.79 15.58Q10.88 15.58 10.31 14.88L10.31 14.88L10.31 14.88Q9.74 14.17 9.74 12.80L9.74 12.80L9.74 12.80Q9.74 10.51 10.94 9.04L10.94 9.04L10.94 9.04Q12.14 7.57 13.92 7.57L13.92 7.57L13.92 7.57Q14.42 7.57 14.99 7.73L14.99 7.73L14.99 7.73Q14.04 7.88 13.29 8.42L13.29 8.42L13.29 8.42Q12.53 8.96 12.11 9.69L12.11 9.69L12.11 9.69Q11.26 11.17 11.26 12.60L11.26 12.60ZM22.32 8.08L22.32 8.08L22.32 8.08Q21.48 8.08 20.89 9.04L20.89 9.04L20.89 9.04Q20.31 10.01 20.12 11.31L20.12 11.31L20.51 11.31L20.51 11.31Q21.25 11.31 21.80 11.10L21.80 11.10L21.80 11.10Q22.34 10.89 22.64 10.56L22.64 10.56L22.64 10.56Q23.20 9.91 23.20 9.10L23.20 9.10L23.20 9.10Q23.20 8.64 22.98 8.36L22.98 8.36L22.98 8.36Q22.76 8.08 22.32 8.08ZM24.29 13.75L24.29 13.75Q23.65 14.80 22.88 15.22L22.88 15.22L22.88 15.22Q22.11 15.64 21.09 15.64L21.09 15.64L21.09 15.64Q20.08 15.64 19.32 14.74L19.32 14.74L19.32 14.74Q18.56 13.85 18.56 12.22L18.56 12.22L18.56 12.22Q18.56 10.37 19.56 8.92L19.56 8.92L19.56 8.92Q20.05 8.22 20.84 7.78L20.84 7.78L20.84 7.78Q21.63 7.35 22.58 7.35L22.58 7.35L22.58 7.35Q24.68 7.35 24.68 9.38L24.68 9.38L24.68 9.38Q24.68 10.60 23.74 11.29L23.74 11.29L23.74 11.29Q22.79 11.98 21.55 11.98L21.55 11.98L21.55 11.98Q20.72 11.98 20.06 11.83L20.06 11.83L20.06 11.83Q20.05 11.97 20.05 12.26L20.05 12.26L20.05 12.26Q20.05 14.74 21.52 14.74L21.52 14.74L21.52 14.74Q22.90 14.74 23.77 13.37L23.77 13.37L23.77 13.37Q24.29 13.44 24.29 13.75L24.29 13.75ZM29.90 8.08L29.90 8.08L29.90 8.08Q29.06 8.08 28.48 9.04L28.48 9.04L28.48 9.04Q27.90 10.01 27.71 11.31L27.71 11.31L28.10 11.31L28.10 11.31Q28.84 11.31 29.39 11.10L29.39 11.10L29.39 11.10Q29.93 10.89 30.23 10.56L30.23 10.56L30.23 10.56Q30.79 9.91 30.79 9.10L30.79 9.10L30.79 9.10Q30.79 8.64 30.57 8.36L30.57 8.36L30.57 8.36Q30.35 8.08 29.90 8.08ZM31.88 13.75L31.88 13.75Q31.23 14.80 30.46 15.22L30.46 15.22L30.46 15.22Q29.69 15.64 28.68 15.64L28.68 15.64L28.68 15.64Q27.66 15.64 26.91 14.74L26.91 14.74L26.91 14.74Q26.15 13.85 26.15 12.22L26.15 12.22L26.15 12.22Q26.15 10.37 27.15 8.92L27.15 8.92L27.15 8.92Q27.64 8.22 28.43 7.78L28.43 7.78L28.43 7.78Q29.22 7.35 30.17 7.35L30.17 7.35L30.17 7.35Q32.27 7.35 32.27 9.38L32.27 9.38L32.27 9.38Q32.27 10.60 31.33 11.29L31.33 11.29L31.33 11.29Q30.38 11.98 29.13 11.98L29.13 11.98L29.13 11.98Q28.31 11.98 27.65 11.83L27.65 11.83L27.65 11.83Q27.64 11.97 27.64 12.26L27.64 12.26L27.64 12.26Q27.64 14.74 29.11 14.74L29.11 14.74L29.11 14.74Q30.49 14.74 31.36 13.37L31.36 13.37L31.36 13.37Q31.88 13.44 31.88 13.75L31.88 13.75ZM33.98 14.41L33.98 14.41L33.98 14.41Q33.96 14.18 33.96 13.69L33.96 13.69L33.96 13.69Q33.96 13.19 34.43 9.44L34.43 9.44L34.43 9.44Q34.90 5.68 34.90 4.28L34.90 4.28L34.90 4.28Q34.90 2.88 34.73 2.46L34.73 2.46L34.73 2.46Q35.52 2.76 35.84 3.33L35.84 3.33L35.84 3.33Q36.16 3.91 36.16 4.72L36.16 4.72L36.16 4.72Q36.16 5.53 35.76 8.92L35.76 8.92L35.76 8.92Q35.35 12.31 35.35 14.38L35.35 14.38L35.35 14.38Q35.35 14.83 35.41 15.64L35.41 15.64L35.41 15.64Q34.64 15.58 34.31 15.27L34.31 15.27L34.31 15.27Q34.05 15.02 33.98 14.41ZM48.36 10.47L48.36 10.47L46.33 10.44L46.33 10.44Q45.68 10.44 45.05 10.49L45.05 10.49L45.05 10.49Q44.70 12.99 44.70 14.20L44.70 14.20L44.70 14.20Q44.70 15.40 44.90 15.86L44.90 15.86L44.90 15.86Q44.03 15.55 43.67 15.03L43.67 15.03L43.67 15.03Q43.32 14.50 43.32 13.80L43.32 13.80L43.32 13.80Q43.32 13.09 43.46 11.98L43.46 11.98L43.46 11.98Q43.61 10.86 43.64 10.70L43.64 10.70L43.64 10.70Q43.16 10.81 42.92 10.89L42.92 10.89L42.92 10.89Q42.90 10.64 42.90 10.36L42.90 10.36L42.90 10.36Q42.90 9.56 43.82 9.42L43.82 9.42L43.82 9.42Q44.13 7.04 44.13 5.35L44.13 5.35L44.13 5.35Q44.13 4.93 44.07 4.20L44.07 4.20L44.07 4.20Q45.14 4.26 45.40 4.70L45.40 4.70L45.40 4.70Q45.54 4.96 45.58 5.19L45.58 5.19L45.58 5.19Q45.63 5.42 45.63 5.98L45.63 5.98L45.63 5.98Q45.63 6.54 45.42 7.90L45.42 7.90L45.42 7.90Q45.22 9.25 45.21 9.38L45.21 9.38L45.21 9.38Q47.70 9.38 49.69 9.34L49.69 9.34L49.69 9.34Q49.99 7 49.99 5.35L49.99 5.35L49.99 5.35Q49.99 4.93 49.94 4.20L49.94 4.20L49.94 4.20Q51.00 4.26 51.27 4.70L51.27 4.70L51.27 4.70Q51.41 4.96 51.45 5.19L51.45 5.19L51.45 5.19Q51.49 5.42 51.49 5.98L51.49 5.98L51.49 5.98Q51.49 6.54 51.03 9.70L51.03 9.70L51.03 9.70Q50.57 12.87 50.57 14.13L50.57 14.13L50.57 14.13Q50.57 15.40 50.76 15.86L50.76 15.86L50.76 15.86Q49.90 15.55 49.54 15.03L49.54 15.03L49.54 15.03Q49.18 14.50 49.18 13.80L49.18 13.80L49.18 13.80Q49.18 13.09 49.48 10.92L49.48 10.92L49.67 9.49L49.67 9.49Q49.46 10.47 48.36 10.47ZM55.80 9.95L55.80 9.95L55.80 9.95Q55.40 10.65 55.18 11.39L55.18 11.39L55.18 11.39Q54.96 12.12 54.96 12.80L54.96 12.80L54.96 12.80Q54.96 13.47 55.26 13.94L55.26 13.94L55.26 13.94Q55.57 14.41 56.13 14.41L56.13 14.41L56.13 14.41Q56.91 14.41 57.60 13.55L57.60 13.55L57.60 13.55Q58.28 12.68 58.65 11.46L58.65 11.46L58.65 11.46Q59.02 10.23 59.02 9.19L59.02 9.19L59.02 9.19Q59.02 8.15 58.94 7.48L58.94 7.48L58.94 7.48Q59.28 7.45 59.36 7.45L59.36 7.45L59.36 7.45Q60.55 7.45 60.55 8.67L60.55 8.67L60.55 8.67Q60.55 8.93 60.21 10.83L60.21 10.83L60.21 10.83Q59.88 12.73 59.88 13.87L59.88 13.87L59.88 13.87Q59.88 15.01 60.31 15.89L60.31 15.89L60.31 15.89Q59.43 15.71 59.03 15.11L59.03 15.11L59.03 15.11Q58.63 14.52 58.63 13.40L58.63 13.40L58.63 13.40Q58.63 13.20 58.69 12.64L58.69 12.64L58.69 12.64Q58.31 13.97 57.36 14.78L57.36 14.78L57.36 14.78Q56.41 15.60 55.49 15.60L55.49 15.60L55.49 15.60Q54.57 15.60 54.01 14.90L54.01 14.90L54.01 14.90Q53.45 14.21 53.45 12.99L53.45 12.99L53.45 12.99Q53.45 11.76 53.91 10.59L53.91 10.59L53.91 10.59Q54.36 9.42 55.28 8.57L55.28 8.57L55.28 8.57Q56.20 7.71 57.33 7.71L57.33 7.71L57.33 7.71Q57.82 7.71 58.41 7.91L58.41 7.91L58.41 7.91Q57.58 8.12 56.90 8.68L56.90 8.68L56.90 8.68Q56.21 9.24 55.80 9.95ZM64.50 10.88L64.50 10.88Q65.00 9.06 65.71 8.20L65.71 8.20L65.71 8.20Q66.42 7.34 67.02 7.34L67.02 7.34L67.02 7.34Q67.63 7.34 67.94 7.79L67.94 7.79L67.94 7.79Q68.25 8.25 68.25 8.95L68.25 8.95L68.25 8.95Q68.25 9.65 67.89 10.16L67.89 10.16L67.89 10.16Q67.52 10.67 66.82 10.67L66.82 10.67L66.82 10.67Q66.60 10.67 66.47 10.64L66.47 10.64L66.47 10.64Q66.95 9.95 66.95 9.24L66.95 9.24L66.95 9.24Q66.95 8.74 66.54 8.74L66.54 8.74L66.54 8.74Q66.22 8.74 65.86 9.11L65.86 9.11L65.86 9.11Q65.49 9.49 65.16 10.16L65.16 10.16L65.16 10.16Q64.82 10.84 64.60 11.91L64.60 11.91L64.60 11.91Q64.37 12.99 64.37 14.24L64.37 14.24L64.37 14.24Q64.37 14.38 64.44 15.43L64.44 15.43L64.44 15.43Q64.08 15.46 64.02 15.46L64.02 15.46L64.02 15.46Q62.79 15.46 62.79 14.25L62.79 14.25L62.79 14.25Q62.79 13.97 63.08 12.10L63.08 12.10L63.08 12.10Q63.38 10.22 63.38 9.11L63.38 9.11L63.38 9.11Q63.38 7.99 63.14 7.06L63.14 7.06L63.14 7.06Q63.97 7.38 64.29 7.97L64.29 7.97L64.29 7.97Q64.62 8.57 64.62 9.36L64.62 9.36L64.62 9.36Q64.62 10.15 64.50 10.88L64.50 10.88ZM70.98 10.88L70.98 10.88Q71.48 9.06 72.19 8.20L72.19 8.20L72.19 8.20Q72.90 7.34 73.51 7.34L73.51 7.34L73.51 7.34Q74.12 7.34 74.42 7.79L74.42 7.79L74.42 7.79Q74.73 8.25 74.73 8.95L74.73 8.95L74.73 8.95Q74.73 9.65 74.37 10.16L74.37 10.16L74.37 10.16Q74.00 10.67 73.30 10.67L73.30 10.67L73.30 10.67Q73.08 10.67 72.95 10.64L72.95 10.64L72.95 10.64Q73.43 9.95 73.43 9.24L73.43 9.24L73.43 9.24Q73.43 8.74 73.02 8.74L73.02 8.74L73.02 8.74Q72.70 8.74 72.34 9.11L72.34 9.11L72.34 9.11Q71.97 9.49 71.64 10.16L71.64 10.16L71.64 10.16Q71.30 10.84 71.08 11.91L71.08 11.91L71.08 11.91Q70.85 12.99 70.85 14.24L70.85 14.24L70.85 14.24Q70.85 14.38 70.92 15.43L70.92 15.43L70.92 15.43Q70.56 15.46 70.50 15.46L70.50 15.46L70.50 15.46Q69.27 15.46 69.27 14.25L69.27 14.25L69.27 14.25Q69.27 13.97 69.57 12.10L69.57 12.10L69.57 12.10Q69.86 10.22 69.86 9.11L69.86 9.11L69.86 9.11Q69.86 7.99 69.62 7.06L69.62 7.06L69.62 7.06Q70.45 7.38 70.78 7.97L70.78 7.97L70.78 7.97Q71.11 8.57 71.11 9.36L71.11 9.36L71.11 9.36Q71.11 10.15 70.98 10.88L70.98 10.88ZM81.51 8.32L81.51 8.32L81.51 8.32Q81.51 8.81 81.09 9.67L81.09 9.67L81.09 9.67Q80.67 10.54 80.07 11.58L80.07 11.58L80.07 11.58Q79.46 12.61 78.86 13.78L78.86 13.78L78.86 13.78Q78.26 14.95 77.84 16.35L77.84 16.35L77.84 16.35Q77.42 17.74 77.42 19.01L77.42 19.01L77.42 19.01Q77.42 19.64 77.52 20.22L77.52 20.22L77.52 20.22Q76.62 20.01 76.31 19.59L76.31 19.59L76.31 19.59Q75.99 19.18 75.99 18.62L75.99 18.62L75.99 18.62Q75.99 17.82 76.97 15.58L76.97 15.58L76.97 15.58Q76.76 14.71 76.45 12.86L76.45 12.86L76.45 12.86Q76.15 11.00 75.83 9.63L75.83 9.63L75.83 9.63Q75.52 8.26 75.11 7.59L75.11 7.59L75.11 7.59Q75.64 7.22 76.02 7.22L76.02 7.22L76.02 7.22Q76.75 7.22 77.01 7.97L77.01 7.97L77.01 7.97Q77.28 8.72 77.48 10.84L77.48 10.84L77.48 10.84Q77.69 12.95 77.90 13.94L77.90 13.94L77.90 13.94Q80.64 8.78 80.64 7.04L80.64 7.04L80.64 7.04Q81.51 7.63 81.51 8.32Z"></path></g><!----><!----></svg>